<?xml version="1.0" encoding="utf-8"?>
<!-- Generator: Adobe Illustrator 27.0.0, SVG Export Plug-In . SVG Version: 6.00 Build 0)  -->
<svg version="1.1" id="Layer_1" xmlns="http://www.w3.org/2000/svg" xmlns:xlink="http://www.w3.org/1999/xlink" x="0px" y="0px"
	 viewBox="0 0 1000 1000" style="enable-background:new 0 0 1000 1000;" xml:space="preserve">
<style type="text/css">
	.st0{fill:#58B947;}
	.st1{opacity:0.4;fill:#79C143;enable-background:new    ;}
</style>
<path class="st0" d="M733.3,233.3c147.3,0,266.7,119.4,266.7,266.7S880.6,766.7,733.3,766.7c-147.2,0-266.6-119.4-266.6-266.7
	S586.1,233.3,733.3,233.3L733.3,233.3z"/>
<path class="st1" d="M766.7,500c0-92.9-69.9-166.7-157.9-166.7h-451c-85.5,0-154,69.9-157.6,159.2L0,500
	c0,92.9,69.9,166.7,157.8,166.7h451c85.6,0,154.1-69.9,157.7-159.2L766.7,500L766.7,500z"/>
</svg>
