<?xml version="1.0" encoding="utf-8"?>
<!-- Generator: Adobe Illustrator 27.0.0, SVG Export Plug-In . SVG Version: 6.00 Build 0)  -->
<svg version="1.1" id="Layer_1" xmlns="http://www.w3.org/2000/svg" xmlns:xlink="http://www.w3.org/1999/xlink" x="0px" y="0px"
	 viewBox="0 0 1000 1000" style="enable-background:new 0 0 1000 1000;" xml:space="preserve">
<style type="text/css">
	.st0{fill:#EE2726;}
	.st1{opacity:0.4;fill:#EE3024;enable-background:new    ;}
</style>
<path class="st0" d="M266.7,233.3c147.2,0,266.6,119.4,266.6,266.7S413.9,766.7,266.7,766.7C119.4,766.7,0,647.3,0,500
	S119.4,233.3,266.7,233.3L266.7,233.3z"/>
<path class="st1" d="M1000,500c0-92.9-69.9-166.7-157.8-166.7h-451c-85.6,0-154.1,69.9-157.7,159.2l-0.2,7.5
	c0,92.9,69.9,166.7,157.9,166.7h451c85.5,0,154-69.9,157.6-159.2L1000,500L1000,500z"/>
</svg>
